<svg xmlns="http://www.w3.org/2000/svg" xmlns:xlink="http://www.w3.org/1999/xlink" contentStyleType="text/css" data-diagram-type="DESCRIPTION" height="445px" preserveAspectRatio="none" style="width:471px;height:445px;background:#FFFFFF;" version="1.1" viewBox="0 0 471 445" width="471px" zoomAndPan="magnify"><?plantuml $version$?><defs/><g><!--entity Admin--><g class="entity" data-qualified-name="Admin" data-source-line="3" id="ent0001"><ellipse cx="91.0089" cy="333" fill="#F1F1F1" rx="8" ry="8" style="stroke:#181818;stroke-width:0.5;"/><path d="M91.0089,341 L91.0089,368 M78.0089,349 L104.0089,349 M91.0089,368 L78.0089,383 M91.0089,368 L104.0089,383" fill="none" style="stroke:#181818;stroke-width:0.5;"/><text fill="#000000" font-family="sans-serif" font-size="14" lengthAdjust="spacing" textLength="64.7979" x="58.61" y="397.4951">Authority</text></g><!--entity LP--><g class="entity" data-qualified-name="LP" data-source-line="4" id="ent0002"><ellipse cx="91.01" cy="14" fill="#F1F1F1" rx="8" ry="8" style="stroke:#181818;stroke-width:0.5;"/><path d="M91.01,22 L91.01,49 M78.01,30 L104.01,30 M91.01,49 L78.01,64 M91.01,49 L104.01,64" fill="none" style="stroke:#181818;stroke-width:0.5;"/><text fill="#000000" font-family="sans-serif" font-size="14" lengthAdjust="spacing" textLength="16.2422" x="82.8889" y="78.4951">LP</text></g><!--entity Trader--><g class="entity" data-qualified-name="Trader" data-source-line="5" id="ent0003"><ellipse cx="91.0113" cy="212" fill="#F1F1F1" rx="8" ry="8" style="stroke:#181818;stroke-width:0.5;"/><path d="M91.0113,220 L91.0113,247 M78.0113,228 L104.0113,228 M91.0113,247 L78.0113,262 M91.0113,247 L104.0113,262" fill="none" style="stroke:#181818;stroke-width:0.5;"/><text fill="#000000" font-family="sans-serif" font-size="14" lengthAdjust="spacing" textLength="46.1426" x="67.94" y="276.4951">Trader</text></g><!--entity Prog--><g class="entity" data-qualified-name="Prog" data-source-line="6" id="ent0004"><rect fill="#F1F1F1" height="52.5938" rx="2.5" ry="2.5" style="stroke:#181818;stroke-width:0.5;" width="168.0254" x="7" y="116.35"/><text fill="#000000" font-family="sans-serif" font-size="14" lengthAdjust="spacing" textLength="97.8086" x="17" y="139.3451">AMM Program</text><text fill="#000000" font-family="sans-serif" font-size="14" lengthAdjust="spacing" textLength="148.0254" x="17" y="155.642">(signs as config PDA)</text></g><!--entity Init--><g class="entity" data-qualified-name="Init" data-source-line="7" id="ent0005"><ellipse cx="393.0308" cy="330.6536" fill="#F1F1F1" rx="44.2608" ry="14.5236" style="stroke:#181818;stroke-width:0.5;"/><text fill="#000000" font-family="sans-serif" font-size="14" lengthAdjust="spacing" textLength="58.3516" x="363.855" y="335.3021">initialize</text></g><!--entity Liq--><g class="entity" data-qualified-name="Liq" data-source-line="8" id="ent0006"><ellipse cx="393.0278" cy="90.6506" fill="#F1F1F1" rx="64.0078" ry="24.2806" style="stroke:#181818;stroke-width:0.5;"/><text fill="#000000" font-family="sans-serif" font-size="14" lengthAdjust="spacing" textLength="93.4404" x="346.3076" y="89.7626">add / remove</text><text fill="#000000" font-family="sans-serif" font-size="14" lengthAdjust="spacing" textLength="55.9795" x="365.038" y="106.0595">liquidity</text></g><!--entity Swap--><g class="entity" data-qualified-name="Swap" data-source-line="9" id="ent0007"><ellipse cx="393.0343" cy="193.6536" fill="#F1F1F1" rx="28.6043" ry="14.5236" style="stroke:#181818;stroke-width:0.5;"/><text fill="#000000" font-family="sans-serif" font-size="14" lengthAdjust="spacing" textLength="36.21" x="374.9293" y="198.3021">swap</text></g><!--entity Adm--><g class="entity" data-qualified-name="Adm" data-source-line="10" id="ent0008"><ellipse cx="393.0336" cy="405.6546" fill="#F1F1F1" rx="61.0936" ry="25.7246" style="stroke:#181818;stroke-width:0.5;"/><text fill="#000000" font-family="sans-serif" font-size="14" lengthAdjust="spacing" textLength="83.3232" x="351.372" y="402.6142">set_locked /</text><text fill="#000000" font-family="sans-serif" font-size="14" lengthAdjust="spacing" textLength="78.4834" x="353.7919" y="418.9111">update_fee</text></g><!--link Admin to Init--><g class="link" data-entity-1="ent0001" data-entity-2="ent0005" data-link-type="dependency" data-source-line="11" id="lnk9"><path d="M123.84,359.25 C178.43,353.43 284.9182,342.0706 345.5482,335.6006" fill="none" id="Admin-to-Init" style="stroke:#181818;stroke-width:1;"/><polygon fill="#181818" points="350.52,335.07,341.1464,332.0476,345.5482,335.6006,341.9953,340.0024,350.52,335.07" style="stroke:#181818;stroke-width:1;stroke-linejoin:miter;stroke-miterlimit:10;"/><text fill="#000000" font-family="sans-serif" font-size="13" lengthAdjust="spacing" textLength="33.6489" x="235.53" y="337.0669">signs</text></g><!--link LP to Liq--><g class="link" data-entity-1="ent0002" data-entity-2="ent0006" data-link-type="dependency" data-source-line="12" id="lnk10"><path d="M104.9,45.66 C143.71,51.74 256.2502,69.3766 328.3602,80.6666" fill="none" id="LP-to-Liq" style="stroke:#181818;stroke-width:1;"/><polygon fill="#181818" points="333.3,81.44,325.027,76.096,328.3602,80.6666,323.7896,83.9997,333.3,81.44" style="stroke:#181818;stroke-width:1;stroke-linejoin:miter;stroke-miterlimit:10;"/><text fill="#000000" font-family="sans-serif" font-size="13" lengthAdjust="spacing" textLength="33.6489" x="235.53" y="57.6169">signs</text></g><!--link Trader to Swap--><g class="link" data-entity-1="ent0003" data-entity-2="ent0007" data-link-type="dependency" data-source-line="13" id="lnk11"><path d="M114.43,243.63 C152.8,246.43 233.29,249.66 299.03,234.65 C326.04,228.48 350.5054,216.8348 368.7854,206.9148" fill="none" id="Trader-to-Swap" style="stroke:#181818;stroke-width:1;"/><polygon fill="#181818" points="373.18,204.53,363.3618,205.307,368.7854,206.9148,367.1776,212.3384,373.18,204.53" style="stroke:#181818;stroke-width:1;stroke-linejoin:miter;stroke-miterlimit:10;"/><text fill="#000000" font-family="sans-serif" font-size="13" lengthAdjust="spacing" textLength="33.6489" x="235.53" y="230.7169">signs</text></g><!--link Admin to Adm--><g class="link" data-entity-1="ent0001" data-entity-2="ent0008" data-link-type="dependency" data-source-line="14" id="lnk12"><path d="M123.84,367.21 C173.98,374.39 267.1505,387.7512 329.7905,396.7212" fill="none" id="Admin-to-Adm" style="stroke:#181818;stroke-width:1;"/><polygon fill="#181818" points="334.74,397.43,326.3979,392.1946,329.7905,396.7212,325.2639,400.1138,334.74,397.43" style="stroke:#181818;stroke-width:1;stroke-linejoin:miter;stroke-miterlimit:10;"/><text fill="#000000" font-family="sans-serif" font-size="13" lengthAdjust="spacing" textLength="90.873" x="207.03" y="375.0969">authority only</text></g><!--link Prog to Liq--><g class="link" data-entity-1="ent0004" data-entity-2="ent0006" data-link-type="dependency" data-source-line="15" id="lnk13"><path d="M175.19,128.23 C225.82,119.45 284.3033,109.3133 329.4533,101.4933" fill="none" id="Prog-to-Liq" style="stroke:#181818;stroke-width:1;"/><polygon fill="#181818" points="334.38,100.64,324.8294,98.2346,329.4533,101.4933,326.1947,106.1173,334.38,100.64" style="stroke:#181818;stroke-width:1;stroke-linejoin:miter;stroke-miterlimit:10;"/><text fill="#000000" font-family="sans-serif" font-size="13" lengthAdjust="spacing" textLength="92.6504" x="206.03" y="103.5369">invoke_signed</text></g><!--link Prog to Swap--><g class="link" data-entity-1="ent0004" data-entity-2="ent0007" data-link-type="dependency" data-source-line="16" id="lnk14"><path d="M175.43,163.63 C185.37,165.82 195.4,167.88 205.03,169.65 C261.37,179.96 323.095,186.8907 359.665,190.5607" fill="none" id="Prog-to-Swap" style="stroke:#181818;stroke-width:1;"/><polygon fill="#181818" points="364.64,191.06,356.0844,186.1813,359.665,190.5607,355.2856,194.1413,364.64,191.06" style="stroke:#181818;stroke-width:1;stroke-linejoin:miter;stroke-miterlimit:10;"/><text fill="#000000" font-family="sans-serif" font-size="13" lengthAdjust="spacing" textLength="92.6504" x="206.03" y="165.7169">invoke_signed</text></g><?plantuml-src LP11QyCm38Nl_XMYf-rGTjzX4DXba4AWEmQ2Y1L7n9LJssdfVlriTscwc_mzwJt9beO8qO5dCqRGxAcFx4I5YML6ZoS88sftPJ4me0sai8_EmwvQukWynziEC42bJoohL3U5rSqAlZrgyWNUIvLZK8obP7GuGEETILcjl0Gs4d9ZxsHW0yrdzLe6SujQ0lKOqX0BHqRBFrJ4h_JSHDGQti3JoLse5SldXVMwQCtdhJ5SSIxqc8edJB6phfyesRIop1eZTGFHUgagry9-_r62uHtArgfk2aiH3tG_j-2SyU2RGweInVKtmOczgNpianVBnKtKvL7Ic_Zd-4_z1G00?></g></svg>