<svg xmlns="http://www.w3.org/2000/svg" xmlns:xlink="http://www.w3.org/1999/xlink" contentStyleType="text/css" data-diagram-type="DESCRIPTION" height="141px" preserveAspectRatio="none" style="width:689px;height:141px;background:#FFFFFF;" version="1.1" viewBox="0 0 689 141" width="689px" zoomAndPan="magnify"><?plantuml $version$?><defs/><g><!--entity Alice--><g class="entity" data-qualified-name="Alice" data-source-line="3" id="ent0001"><ellipse cx="26.73" cy="44.5" fill="#F1F1F1" rx="8" ry="8" style="stroke:#181818;stroke-width:0.5;"/><path d="M26.73,52.5 L26.73,79.5 M13.73,60.5 L39.73,60.5 M26.73,79.5 L13.73,94.5 M26.73,79.5 L39.73,94.5" fill="none" style="stroke:#181818;stroke-width:0.5;"/><text fill="#000000" font-family="sans-serif" font-size="14" lengthAdjust="spacing" textLength="33.667" x="6" y="108.9951">Alice</text><text fill="#000000" font-family="sans-serif" font-size="14" lengthAdjust="spacing" textLength="41.46" x="6" y="125.292">(user)</text></g><!--entity State--><g class="entity" data-qualified-name="State" data-source-line="4" id="ent0002"><rect fill="#F1F1F1" height="52.5938" rx="2.5" ry="2.5" style="stroke:#181818;stroke-width:0.5;" width="97.5811" x="261.17" y="7"/><text fill="#000000" font-family="sans-serif" font-size="14" lengthAdjust="spacing" textLength="77.5811" x="271.17" y="29.9951">vault_state</text><text fill="#000000" font-family="sans-serif" font-size="14" lengthAdjust="spacing" textLength="39.7236" x="271.17" y="46.292">(PDA)</text></g><!--entity Vault--><g class="entity" data-qualified-name="Vault" data-source-line="5" id="ent0003"><rect fill="#F1F1F1" height="52.5938" rx="2.5" ry="2.5" style="stroke:#181818;stroke-width:0.5;" width="59.7236" x="615.46" y="56"/><text fill="#000000" font-family="sans-serif" font-size="14" lengthAdjust="spacing" textLength="35.1162" x="625.46" y="78.9951">vault</text><text fill="#000000" font-family="sans-serif" font-size="14" lengthAdjust="spacing" textLength="39.7236" x="625.46" y="95.292">(PDA)</text></g><!--link Alice to State--><g class="link" data-entity-1="ent0001" data-entity-2="ent0002" data-link-type="dependency" data-source-line="6" id="lnk4"><path d="M47.96,78.77 C92.16,71.07 193.4942,53.408 255.9542,42.528" fill="none" id="Alice-to-State" style="stroke:#181818;stroke-width:1;"/><polygon fill="#181818" points="260.88,41.67,251.3271,39.2738,255.9542,42.528,252.6999,47.1551,260.88,41.67" style="stroke:#181818;stroke-width:1;stroke-linejoin:miter;stroke-miterlimit:10;"/><text fill="#000000" font-family="sans-serif" font-size="13" lengthAdjust="spacing" textLength="133.5801" x="78.46" y="46.6069">seeds ["state", user]</text></g><!--link State to Vault--><g class="link" data-entity-1="ent0002" data-entity-2="ent0003" data-link-type="dependency" data-source-line="7" id="lnk5"><path d="M359.08,40.37 C429.22,50.68 552.4831,68.7929 610.0431,77.2529" fill="none" id="State-to-Vault" style="stroke:#181818;stroke-width:1;"/><polygon fill="#181818" points="614.99,77.98,606.6673,72.7138,610.0431,77.2529,605.504,80.6287,614.99,77.98" style="stroke:#181818;stroke-width:1;stroke-linejoin:miter;stroke-miterlimit:10;"/><text fill="#000000" font-family="sans-serif" font-size="13" lengthAdjust="spacing" textLength="176.9409" x="408.46" y="43.8369">seeds ["vault", vault_state]</text></g><!--link Alice to Vault--><g class="link" data-entity-1="ent0001" data-entity-2="ent0003" data-link-type="dependency" data-source-line="8" id="lnk6"><path d="M47.85,83.79 C85.84,86.54 170.8,92.29 242.46,94.29 C382,98.19 543.8007,88.9974 610.0907,84.6474" fill="none" id="Alice-to-Vault" style="stroke:#181818;stroke-width:1;stroke-dasharray:7,7;"/><polygon fill="#181818" points="615.08,84.32,605.8374,80.9179,610.0907,84.6474,606.3612,88.9007,615.08,84.32" style="stroke:#181818;stroke-width:1;stroke-linejoin:miter;stroke-miterlimit:10;"/><text fill="#000000" font-family="sans-serif" font-size="13" lengthAdjust="spacing" textLength="133.9038" x="243.46" y="90.3569">deposits / withdraws</text></g><?plantuml-src POxB2i8m44Nt-OeXAmKVUnT2mGyG13TQP6YcxM1C93Erlwz91Gjkxpttp7Xg5JH2ugvNS9oeKOx1o9t34nC-G7fqSUJGGOjUo62ZCO6jF3Tq3Oj1A2qje419J1PWw3o1VU7WzIQAci7ZePguKmx-k3bnpe4fFbYlzzC2TY14Jk1YYzAk8D-kpTHchkncN15_kDaZzLUxsVnmHyyeh09R65bxbt2KDm00?></g></svg>