<svg xmlns="http://www.w3.org/2000/svg" xmlns:xlink="http://www.w3.org/1999/xlink" contentStyleType="text/css" data-diagram-type="DESCRIPTION" height="309px" preserveAspectRatio="none" style="width:349px;height:309px;background:#FFFFFF;" version="1.1" viewBox="0 0 349 309" width="349px" zoomAndPan="magnify"><?plantuml $version$?><defs/><g><!--entity User--><g class="entity" data-qualified-name="User" data-source-line="3" id="ent0001"><ellipse cx="54.041" cy="16.7359" fill="#F1F1F1" rx="8" ry="8" style="stroke:#181818;stroke-width:0.5;"/><path d="M54.041,24.7359 L54.041,51.7359 M41.041,32.7359 L67.041,32.7359 M54.041,51.7359 L41.041,66.7359 M54.041,51.7359 L67.041,66.7359" fill="none" style="stroke:#181818;stroke-width:0.5;"/><text fill="#000000" font-family="sans-serif" font-size="14" lengthAdjust="spacing" textLength="76.002" x="16.04" y="81.231">LP / Trader</text></g><!--entity Config--><g class="entity" data-qualified-name="Config" data-source-line="4" id="ent0002"><rect fill="#F1F1F1" height="52.5938" rx="2.5" ry="2.5" style="stroke:#181818;stroke-width:0.5;" width="94.0811" x="7" y="191.0859"/><text fill="#000000" font-family="sans-serif" font-size="14" lengthAdjust="spacing" textLength="42.8408" x="17" y="214.081">config</text><text fill="#000000" font-family="sans-serif" font-size="14" lengthAdjust="spacing" textLength="74.0811" x="17" y="230.3779">(pool PDA)</text></g><!--entity Vx--><g class="entity" data-qualified-name="Vx" data-source-line="5" id="ent0003"><rect fill="#F1F1F1" height="36.2969" rx="2.5" ry="2.5" style="stroke:#181818;stroke-width:0.5;" width="70.4014" x="264.71" y="110.2359"/><text fill="#000000" font-family="sans-serif" font-size="14" lengthAdjust="spacing" textLength="50.4014" x="274.71" y="133.231">vault_x</text></g><!--entity Vy--><g class="entity" data-qualified-name="Vy" data-source-line="6" id="ent0004"><rect fill="#F1F1F1" height="36.2969" rx="2.5" ry="2.5" style="stroke:#181818;stroke-width:0.5;" width="70.4014" x="264.71" y="32.2359"/><text fill="#000000" font-family="sans-serif" font-size="14" lengthAdjust="spacing" textLength="50.4014" x="274.71" y="55.231">vault_y</text></g><!--entity LP--><g class="entity" data-qualified-name="LP" data-source-line="7" id="ent0005"><rect fill="#F1F1F1" height="36.2969" rx="2.5" ry="2.5" style="stroke:#181818;stroke-width:0.5;" width="71.666" x="264.08" y="195.2359"/><text fill="#000000" font-family="sans-serif" font-size="14" lengthAdjust="spacing" textLength="51.666" x="274.08" y="218.231">mint_lp</text></g><!--link Config to Vx--><g class="link" data-entity-1="ent0002" data-entity-2="ent0003" data-link-type="dependency" data-source-line="8" id="lnk6"><path d="M101.2,229.7459 C139.1,237.2759 193.01,241.8059 234.08,220.3859 C254.74,209.6059 250.66,196.4359 264.08,177.3859 C271.17,167.3159 276.2314,160.19 282.7414,151.04" fill="none" id="Config-to-Vx" style="stroke:#181818;stroke-width:1;"/><polygon fill="#181818" points="285.64,146.9659,277.1633,151.9804,282.7414,151.04,283.6818,156.6181,285.64,146.9659" style="stroke:#181818;stroke-width:1;stroke-linejoin:miter;stroke-miterlimit:10;"/><text fill="#000000" font-family="sans-serif" font-size="13" lengthAdjust="spacing" textLength="62.188" x="151.58" y="216.4528">reserve X</text></g><!--link Config to Vy--><g class="link" data-entity-1="ent0002" data-entity-2="ent0004" data-link-type="dependency" data-source-line="9" id="lnk7"><path d="M76.18,190.8559 C90.23,174.8059 109.93,155.0559 131.08,142.3859 C172.2,117.7459 192.58,134.3659 234.08,110.3859 C252.94,99.4859 267.4306,85.8917 279.6206,72.6717" fill="none" id="Config-to-Vy" style="stroke:#181818;stroke-width:1;"/><polygon fill="#181818" points="283.01,68.9959,273.9684,72.9009,279.6206,72.6717,279.8497,78.324,283.01,68.9959" style="stroke:#181818;stroke-width:1;stroke-linejoin:miter;stroke-miterlimit:10;"/><text fill="#000000" font-family="sans-serif" font-size="13" lengthAdjust="spacing" textLength="61.2231" x="152.08" y="106.4528">reserve Y</text></g><!--link Config to LP--><g class="link" data-entity-1="ent0002" data-entity-2="ent0005" data-link-type="dependency" data-source-line="10" id="lnk8"><path d="M79.8,243.9659 C93.52,256.7159 111.7,270.6559 131.08,277.3859 C174.33,292.3859 191.73,294.7659 234.08,277.3859 C256.32,268.2559 272.0216,251.4146 283.5316,235.9746" fill="none" id="Config-to-LP" style="stroke:#181818;stroke-width:1;"/><polygon fill="#181818" points="286.52,231.9659,277.934,236.7909,283.5316,235.9746,284.3479,241.5723,286.52,231.9659" style="stroke:#181818;stroke-width:1;stroke-linejoin:miter;stroke-miterlimit:10;"/><text fill="#000000" font-family="sans-serif" font-size="13" lengthAdjust="spacing" textLength="62.0356" x="151.58" y="273.4528">LP supply</text></g><!--link User to Vx--><g class="link" data-entity-1="ent0001" data-entity-2="ent0003" data-link-type="dependency" data-source-line="11" id="lnk9"><path d="M92.26,50.4059 C129.35,55.3459 187.35,65.6159 234.08,85.3859 C248.76,91.5859 259.632,98.271 271.452,106.841" fill="none" id="User-to-Vx" style="stroke:#181818;stroke-width:1;stroke-dasharray:7,7;"/><polygon fill="#181818" points="275.5,109.7759,270.5616,101.2546,271.452,106.841,265.8657,107.7314,275.5,109.7759" style="stroke:#181818;stroke-width:1;stroke-linejoin:miter;stroke-miterlimit:10;"/><text fill="#000000" font-family="sans-serif" font-size="13" lengthAdjust="spacing" textLength="97.3223" x="134.08" y="53.1428">adds / swaps X</text></g><!--link User to Vy--><g class="link" data-entity-1="ent0001" data-entity-2="ent0004" data-link-type="dependency" data-source-line="12" id="lnk10"><path d="M92.25,35.7559 C104.51,32.7359 118.28,29.8759 131.08,28.3859 C176.55,23.0759 188.91,20.9259 234.08,28.3859 C244.17,30.0459 250.0565,31.4654 259.7265,34.7554" fill="none" id="User-to-Vy" style="stroke:#181818;stroke-width:1;stroke-dasharray:7,7;"/><polygon fill="#181818" points="264.46,36.3659,257.228,29.6802,259.7265,34.7554,254.6513,37.2539,264.46,36.3659" style="stroke:#181818;stroke-width:1;stroke-linejoin:miter;stroke-miterlimit:10;"/><text fill="#000000" font-family="sans-serif" font-size="13" lengthAdjust="spacing" textLength="96.3574" x="134.58" y="19.6328">adds / swaps Y</text></g><!--link User to LP--><g class="link" data-entity-1="ent0001" data-entity-2="ent0005" data-link-type="dependency" data-source-line="13" id="lnk11"><path d="M70.15,84.7859 C82.63,111.6959 102.89,146.4559 131.08,167.3859 C141.82,175.3459 213.0757,193.1291 259.0357,204.0591" fill="none" id="User-to-LP" style="stroke:#181818;stroke-width:1;stroke-dasharray:7,7;"/><polygon fill="#181818" points="263.9,205.2159,256.0696,199.2422,259.0357,204.0591,254.2187,207.0251,263.9,205.2159" style="stroke:#181818;stroke-width:1;stroke-linejoin:miter;stroke-miterlimit:10;"/><text fill="#000000" font-family="sans-serif" font-size="13" lengthAdjust="spacing" textLength="101.2705" x="132.08" y="163.4528">holds LP shares</text></g><?plantuml-src PS-zZW8X50NWdgSucKeBjRSmsMXfCSMkqSJ4t0pC3161SF67jry6JHnt6mg-o-4Uezg8w11qrqT87LGJjRE2pzfw2dG1zoJTNTiEBHbMWfhe0gfjZGM-0qaLAX3ZXrKGmskodL6e6cTRtHtjn3jdK6--fcLiNQx7WpUwcdXw5Dqz_ajwIXhBHTjuChx8jXRFKCncgvo09OBAozmKzX-IHd8OIwwo70w-Uc-I69fWFdzbaPISc_ATFEV0DwQ_U7XZIUoTaLnoUyh__W80?></g></svg>