<svg xmlns="http://www.w3.org/2000/svg" xmlns:xlink="http://www.w3.org/1999/xlink" contentStyleType="text/css" data-diagram-type="DESCRIPTION" height="236px" preserveAspectRatio="none" style="width:210px;height:236px;background:#FFFFFF;" version="1.1" viewBox="0 0 210 236" width="210px" zoomAndPan="magnify"><?plantuml $version$?><defs/><g><!--cluster Escrow--><g class="cluster" data-qualified-name="Escrow" data-source-line="5" id="ent0003"><rect fill="none" height="209" rx="2.5" ry="2.5" style="stroke:#181818;stroke-width:1;" width="102.96" x="93.13" y="7"/><text fill="#000000" font-family="sans-serif" font-size="14" font-weight="700" lengthAdjust="spacing" textLength="55.6514" x="116.7843" y="21.9951">Escrow</text></g><!--entity UC1--><g class="entity" data-qualified-name="Escrow.UC1" data-source-line="6" id="ent0004"><ellipse cx="144.613" cy="57.0036" fill="#F1F1F1" rx="30.533" ry="14.5236" style="stroke:#181818;stroke-width:0.5;"/><text fill="#000000" font-family="sans-serif" font-size="14" lengthAdjust="spacing" textLength="38.9375" x="125.1442" y="61.6521">make</text></g><!--entity UC2--><g class="entity" data-qualified-name="Escrow.UC2" data-source-line="7" id="ent0005"><ellipse cx="144.6112" cy="185.0036" fill="#F1F1F1" rx="24.7712" ry="14.5236" style="stroke:#181818;stroke-width:0.5;"/><text fill="#000000" font-family="sans-serif" font-size="14" lengthAdjust="spacing" textLength="30.7891" x="129.2166" y="189.6521">take</text></g><!--entity UC3--><g class="entity" data-qualified-name="Escrow.UC3" data-source-line="8" id="ent0006"><ellipse cx="144.6079" cy="121.0036" fill="#F1F1F1" rx="35.4779" ry="14.5236" style="stroke:#181818;stroke-width:0.5;"/><text fill="#000000" font-family="sans-serif" font-size="14" lengthAdjust="spacing" textLength="45.9307" x="121.6426" y="125.6521">refund</text></g><!--entity Maker--><g class="entity" data-qualified-name="Maker" data-source-line="3" id="ent0001"><ellipse cx="27.5674" cy="36.35" fill="#F1F1F1" rx="8" ry="8" style="stroke:#181818;stroke-width:0.5;"/><path d="M27.5674,44.35 L27.5674,71.35 M14.5674,52.35 L40.5674,52.35 M27.5674,71.35 L14.5674,86.35 M27.5674,71.35 L40.5674,86.35" fill="none" style="stroke:#181818;stroke-width:0.5;"/><text fill="#000000" font-family="sans-serif" font-size="14" lengthAdjust="spacing" textLength="43.1348" x="6" y="100.8451">Maker</text></g><!--entity Taker--><g class="entity" data-qualified-name="Taker" data-source-line="4" id="ent0002"><ellipse cx="27.5637" cy="155.35" fill="#F1F1F1" rx="8" ry="8" style="stroke:#181818;stroke-width:0.5;"/><path d="M27.5637,163.35 L27.5637,190.35 M14.5637,171.35 L40.5637,171.35 M27.5637,190.35 L14.5637,205.35 M27.5637,190.35 L40.5637,205.35" fill="none" style="stroke:#181818;stroke-width:0.5;"/><text fill="#000000" font-family="sans-serif" font-size="14" lengthAdjust="spacing" textLength="39.6074" x="7.76" y="219.8451">Taker</text></g><!--link Maker to UC1--><g class="link" data-entity-1="ent0001" data-entity-2="ent0004" data-link-type="dependency" data-source-line="10" id="lnk7"><path d="M49.4,64.37 C67.53,62.95 89.0253,61.271 109.2953,59.681" fill="none" id="Maker-to-UC1" style="stroke:#181818;stroke-width:1;"/><polygon fill="#181818" points="114.28,59.29,104.9948,56.0061,109.2953,59.681,105.6204,63.9816,114.28,59.29" style="stroke:#181818;stroke-width:1;stroke-linejoin:miter;stroke-miterlimit:10;"/></g><!--link Taker to UC2--><g class="link" data-entity-1="ent0002" data-entity-2="ent0005" data-link-type="dependency" data-source-line="11" id="lnk8"><path d="M47.82,185 C67.52,185 93.19,185 114.49,185" fill="none" id="Taker-to-UC2" style="stroke:#181818;stroke-width:1;"/><polygon fill="#181818" points="119.49,185,110.49,181,114.49,185,110.49,189,119.49,185" style="stroke:#181818;stroke-width:1;stroke-linejoin:miter;stroke-miterlimit:10;"/></g><!--link Maker to UC3--><g class="link" data-entity-1="ent0001" data-entity-2="ent0006" data-link-type="dependency" data-source-line="12" id="lnk9"><path d="M49.4,75.96 C69.47,85.56 95.2695,97.8824 116.0495,107.8224" fill="none" id="Maker-to-UC3" style="stroke:#181818;stroke-width:1;"/><polygon fill="#181818" points="120.56,109.98,114.1671,102.4879,116.0495,107.8224,110.715,109.7048,120.56,109.98" style="stroke:#181818;stroke-width:1;stroke-linejoin:miter;stroke-miterlimit:10;"/></g><?plantuml-src LOsn3eCm34JtVCM9dQ6mTwawTgCVO0KdH41IsKOCLV-zBK8gtUxUdNqJ1uCLI8g3eK_2tbB9JiUK7oGqGmVgovfoHA19sP6t8hZHoBBhRjFVIyfnObpLIrdnTC2Yx4aPrVpfL235_N8wSllnviY5mvBxFMdToss3gElpzg4xkEOlQzy0?></g></svg>