<svg xmlns="http://www.w3.org/2000/svg" xmlns:xlink="http://www.w3.org/1999/xlink" contentStyleType="text/css" data-diagram-type="DESCRIPTION" height="310px" preserveAspectRatio="none" style="width:484px;height:310px;background:#FFFFFF;" version="1.1" viewBox="0 0 484 310" width="484px" zoomAndPan="magnify"><?plantuml $version$?><defs/><g><!--entity Maker--><g class="entity" data-qualified-name="Maker" data-source-line="3" id="ent0001"><ellipse cx="94.2774" cy="14" fill="#F1F1F1" rx="8" ry="8" style="stroke:#181818;stroke-width:0.5;"/><path d="M94.2774,22 L94.2774,49 M81.2774,30 L107.2774,30 M94.2774,49 L81.2774,64 M94.2774,49 L107.2774,64" fill="none" style="stroke:#181818;stroke-width:0.5;"/><text fill="#000000" font-family="sans-serif" font-size="14" lengthAdjust="spacing" textLength="43.1348" x="72.71" y="78.4951">Maker</text></g><!--entity Taker--><g class="entity" data-qualified-name="Taker" data-source-line="4" id="ent0002"><ellipse cx="94.2837" cy="230" fill="#F1F1F1" rx="8" ry="8" style="stroke:#181818;stroke-width:0.5;"/><path d="M94.2837,238 L94.2837,265 M81.2837,246 L107.2837,246 M94.2837,265 L81.2837,280 M94.2837,265 L107.2837,280" fill="none" style="stroke:#181818;stroke-width:0.5;"/><text fill="#000000" font-family="sans-serif" font-size="14" lengthAdjust="spacing" textLength="39.6074" x="74.48" y="294.4951">Taker</text></g><!--entity Prog--><g class="entity" data-qualified-name="Prog" data-source-line="5" id="ent0003"><rect fill="#F1F1F1" height="52.5938" rx="2.5" ry="2.5" style="stroke:#181818;stroke-width:0.5;" width="174.5605" x="7" y="127.35"/><text fill="#000000" font-family="sans-serif" font-size="14" lengthAdjust="spacing" textLength="113.6816" x="17" y="150.3451">Escrow Program</text><text fill="#000000" font-family="sans-serif" font-size="14" lengthAdjust="spacing" textLength="154.5605" x="17" y="166.642">(signs as escrow PDA)</text></g><!--entity Make--><g class="entity" data-qualified-name="Make" data-source-line="6" id="ent0004"><ellipse cx="403.773" cy="31.6536" fill="#F1F1F1" rx="30.533" ry="14.5236" style="stroke:#181818;stroke-width:0.5;"/><text fill="#000000" font-family="sans-serif" font-size="14" lengthAdjust="spacing" textLength="38.9375" x="384.3042" y="36.3021">make</text></g><!--entity Take--><g class="entity" data-qualified-name="Take" data-source-line="7" id="ent0005"><ellipse cx="403.7712" cy="230.6536" fill="#F1F1F1" rx="24.7712" ry="14.5236" style="stroke:#181818;stroke-width:0.5;"/><text fill="#000000" font-family="sans-serif" font-size="14" lengthAdjust="spacing" textLength="30.7891" x="388.3766" y="235.3021">take</text></g><!--entity Refund--><g class="entity" data-qualified-name="Refund" data-source-line="8" id="ent0006"><ellipse cx="403.766" cy="124.6465" fill="#F1F1F1" rx="67.206" ry="23.8965" style="stroke:#181818;stroke-width:0.5;"/><text fill="#000000" font-family="sans-serif" font-size="14" lengthAdjust="spacing" textLength="45.9307" x="380.8007" y="117.9293">refund</text><text fill="#000000" font-family="sans-serif" font-size="14" lengthAdjust="spacing" textLength="100.1465" x="353.6928" y="134.2262">(expiry-gated)</text></g><!--link Maker to Make--><g class="link" data-entity-1="ent0001" data-entity-2="ent0004" data-link-type="dependency" data-source-line="9" id="lnk7"><path d="M115.93,42.85 C169.12,40.77 305.9638,35.4249 368.0138,33.0049" fill="none" id="Maker-to-Make" style="stroke:#181818;stroke-width:1;"/><polygon fill="#181818" points="373.01,32.81,363.861,29.1638,368.0138,33.0049,364.1727,37.1577,373.01,32.81" style="stroke:#181818;stroke-width:1;stroke-linejoin:miter;stroke-miterlimit:10;"/><text fill="#000000" font-family="sans-serif" font-size="13" lengthAdjust="spacing" textLength="33.6489" x="242.56" y="31.5969">signs</text></g><!--link Taker to Take--><g class="link" data-entity-1="ent0002" data-entity-2="ent0005" data-link-type="dependency" data-source-line="10" id="lnk8"><path d="M114.38,262.13 C151.64,266.48 236.49,274 306.56,262.65 C334.01,258.21 359.6088,248.969 378.7088,241.079" fill="none" id="Taker-to-Take" style="stroke:#181818;stroke-width:1;"/><polygon fill="#181818" points="383.33,239.17,373.4846,238.9092,378.7088,241.079,376.539,246.3032,383.33,239.17" style="stroke:#181818;stroke-width:1;stroke-linejoin:miter;stroke-miterlimit:10;"/><text fill="#000000" font-family="sans-serif" font-size="13" lengthAdjust="spacing" textLength="33.6489" x="242.56" y="258.7169">signs</text></g><!--link Maker to Refund--><g class="link" data-entity-1="ent0001" data-entity-2="ent0006" data-link-type="dependency" data-source-line="11" id="lnk9"><path d="M115.93,49.09 C163.06,61.51 274.9548,90.9869 344.1148,109.1969" fill="none" id="Maker-to-Refund" style="stroke:#181818;stroke-width:1;stroke-dasharray:7,7;"/><polygon fill="#181818" points="348.95,110.47,341.2651,104.3102,344.1148,109.1969,339.2281,112.0465,348.95,110.47" style="stroke:#181818;stroke-width:1;stroke-linejoin:miter;stroke-miterlimit:10;"/><text fill="#000000" font-family="sans-serif" font-size="13" lengthAdjust="spacing" textLength="93.5898" x="212.56" y="70.5769">fee payer only</text></g><!--link Prog to Take--><g class="link" data-entity-1="ent0003" data-entity-2="ent0005" data-link-type="dependency" data-source-line="12" id="lnk10"><path d="M181.75,175.31 C249.61,192.3 334.39,213.5245 375.53,223.8345" fill="none" id="Prog-to-Take" style="stroke:#181818;stroke-width:1;"/><polygon fill="#181818" points="380.38,225.05,372.6223,218.9822,375.53,223.8345,370.6776,226.7422,380.38,225.05" style="stroke:#181818;stroke-width:1;stroke-linejoin:miter;stroke-miterlimit:10;"/><text fill="#000000" font-family="sans-serif" font-size="13" lengthAdjust="spacing" textLength="92.6504" x="213.06" y="179.0569">invoke_signed</text></g><!--link Prog to Refund--><g class="link" data-entity-1="ent0003" data-entity-2="ent0006" data-link-type="dependency" data-source-line="13" id="lnk11"><path d="M181.97,155.9 C220.3,155.79 265.84,154.14 306.56,148.65 C321.15,146.68 331.8685,144.5595 346.1485,140.9995" fill="none" id="Prog-to-Refund" style="stroke:#181818;stroke-width:1;"/><polygon fill="#181818" points="351,139.79,341.2997,138.0859,346.1485,140.9995,343.2349,145.8483,351,139.79" style="stroke:#181818;stroke-width:1;stroke-linejoin:miter;stroke-miterlimit:10;"/><text fill="#000000" font-family="sans-serif" font-size="13" lengthAdjust="spacing" textLength="92.6504" x="213.06" y="144.7169">invoke_signed</text></g><?plantuml-src LOv1Zi8m34NtEON52XRb0BD0GcAM8ur6NI8Xgt53rE9KTXZexKdIKc1dl-_tvPxQ2360U7UEOBrG4trWevtd0GKle6UquURPGOkzai4c1e4Vx4ZckIvpDf5TJx3wraR23NubkDHmvBLwnmgeG7Dos6zMUSydvghKe2RlaeeApkql79-u_i12xPLjQgVxu6Mi74QoK-rVYKnv4gfgLmhX2yeVfbvm_Owdw-rsD-ifQ8bWm37XmFreyhVldkV_qD4fwsHVwQ9_v0y0?></g></svg>