<svg xmlns="http://www.w3.org/2000/svg" xmlns:xlink="http://www.w3.org/1999/xlink" contentStyleType="text/css" data-diagram-type="DESCRIPTION" height="294px" preserveAspectRatio="none" style="width:226px;height:294px;background:#FFFFFF;" version="1.1" viewBox="0 0 226 294" width="226px" zoomAndPan="magnify"><?plantuml $version$?><defs/><g><!--cluster Vault--><g class="cluster" data-qualified-name="Vault" data-source-line="4" id="ent0002"><rect fill="none" height="273" rx="2.5" ry="2.5" style="stroke:#181818;stroke-width:1;" width="129.04" x="83.67" y="7"/><text fill="#000000" font-family="sans-serif" font-size="14" font-weight="700" lengthAdjust="spacing" textLength="41.7402" x="127.3199" y="21.9951">Vault</text></g><!--entity UC1--><g class="entity" data-qualified-name="Vault.UC1" data-source-line="5" id="ent0003"><ellipse cx="148.1908" cy="249.0036" fill="#F1F1F1" rx="44.2608" ry="14.5236" style="stroke:#181818;stroke-width:0.5;"/><text fill="#000000" font-family="sans-serif" font-size="14" lengthAdjust="spacing" textLength="58.3516" x="119.015" y="253.6521">initialize</text></g><!--entity UC2--><g class="entity" data-qualified-name="Vault.UC2" data-source-line="6" id="ent0004"><ellipse cx="148.1944" cy="185.0036" fill="#F1F1F1" rx="39.5044" ry="14.5236" style="stroke:#181818;stroke-width:0.5;"/><text fill="#000000" font-family="sans-serif" font-size="14" lengthAdjust="spacing" textLength="51.625" x="122.3819" y="189.6521">deposit</text></g><!--entity UC3--><g class="entity" data-qualified-name="Vault.UC3" data-source-line="7" id="ent0005"><ellipse cx="148.1893" cy="121.0036" fill="#F1F1F1" rx="48.5193" ry="14.5236" style="stroke:#181818;stroke-width:0.5;"/><text fill="#000000" font-family="sans-serif" font-size="14" lengthAdjust="spacing" textLength="64.374" x="116.0023" y="125.6521">withdraw</text></g><!--entity UC4--><g class="entity" data-qualified-name="Vault.UC4" data-source-line="8" id="ent0006"><ellipse cx="148.188" cy="57.0036" fill="#F1F1F1" rx="28.498" ry="14.5236" style="stroke:#181818;stroke-width:0.5;"/><text fill="#000000" font-family="sans-serif" font-size="14" lengthAdjust="spacing" textLength="36.0596" x="130.1582" y="61.6521">close</text></g><!--entity Alice--><g class="entity" data-qualified-name="Alice" data-source-line="3" id="ent0001"><ellipse cx="22.8335" cy="123.35" fill="#F1F1F1" rx="8" ry="8" style="stroke:#181818;stroke-width:0.5;"/><path d="M22.8335,131.35 L22.8335,158.35 M9.8335,139.35 L35.8335,139.35 M22.8335,158.35 L9.8335,173.35 M22.8335,158.35 L35.8335,173.35" fill="none" style="stroke:#181818;stroke-width:0.5;"/><text fill="#000000" font-family="sans-serif" font-size="14" lengthAdjust="spacing" textLength="33.667" x="6" y="187.8451">Alice</text></g><!--link Alice to UC1--><g class="link" data-entity-1="ent0001" data-entity-2="ent0003" data-link-type="dependency" data-source-line="10" id="lnk7"><path d="M39.98,178.19 C49.21,191.09 61.72,206.28 75.67,217 C87.64,226.2 98.024,231.5922 111.224,236.8422" fill="none" id="Alice-to-UC1" style="stroke:#181818;stroke-width:1;"/><polygon fill="#181818" points="115.87,238.69,108.9854,231.6471,111.224,236.8422,106.0289,239.0807,115.87,238.69" style="stroke:#181818;stroke-width:1;stroke-linejoin:miter;stroke-miterlimit:10;"/></g><!--link Alice to UC2--><g class="link" data-entity-1="ent0001" data-entity-2="ent0004" data-link-type="dependency" data-source-line="11" id="lnk8"><path d="M39.96,157.18 C59.03,162.13 86.3804,169.2235 110.5304,175.4935" fill="none" id="Alice-to-UC2" style="stroke:#181818;stroke-width:1;"/><polygon fill="#181818" points="115.37,176.75,107.664,170.6167,110.5304,175.4935,105.6536,178.36,115.37,176.75" style="stroke:#181818;stroke-width:1;stroke-linejoin:miter;stroke-miterlimit:10;"/></g><!--link Alice to UC3--><g class="link" data-entity-1="ent0001" data-entity-2="ent0005" data-link-type="dependency" data-source-line="12" id="lnk9"><path d="M39.96,148.82 C57.79,144.19 82.2503,137.8458 105.7203,131.7558" fill="none" id="Alice-to-UC3" style="stroke:#181818;stroke-width:1;"/><polygon fill="#181818" points="110.56,130.5,100.8438,128.8887,105.7203,131.7558,102.8531,136.6322,110.56,130.5" style="stroke:#181818;stroke-width:1;stroke-linejoin:miter;stroke-miterlimit:10;"/></g><!--link Alice to UC4--><g class="link" data-entity-1="ent0001" data-entity-2="ent0006" data-link-type="dependency" data-source-line="13" id="lnk10"><path d="M39.98,127.81 C49.21,114.91 61.72,99.72 75.67,89 C89.9,78.06 103.7723,71.6023 118.4223,66.2623" fill="none" id="Alice-to-UC4" style="stroke:#181818;stroke-width:1;"/><polygon fill="#181818" points="123.12,64.55,113.2944,63.8741,118.4223,66.2623,116.0341,71.3903,123.12,64.55" style="stroke:#181818;stroke-width:1;stroke-linejoin:miter;stroke-miterlimit:10;"/></g><?plantuml-src LSx12i8m3CRnUvyYxBw3syw2-0nw3sss1MCxceo2uhkBOq9t_FCB7n4Q3In1vcas29p96wVezC5nmOnFq1b3AXmd656K77fB6Ix2djpl6kCa17TSnU3j05ObZqhGS6HZ57vH0wXmkvvg3RGaPTkfgwcmpI5ZsQslpKlI_zxWFcxx0zhslEtNrHsgFzJm1G00?></g></svg>