<svg xmlns="http://www.w3.org/2000/svg" xmlns:xlink="http://www.w3.org/1999/xlink" contentStyleType="text/css" data-diagram-type="DESCRIPTION" height="371px" preserveAspectRatio="none" style="width:308px;height:371px;background:#FFFFFF;" version="1.1" viewBox="0 0 308 371" width="308px" zoomAndPan="magnify"><?plantuml $version$?><defs/><g><!--cluster AMM--><g class="cluster" data-qualified-name="AMM" data-source-line="6" id="ent0004"><rect fill="none" height="344" rx="2.5" ry="2.5" style="stroke:#181818;stroke-width:1;" width="180.13" x="114.8" y="7"/><text fill="#000000" font-family="sans-serif" font-size="14" font-weight="700" lengthAdjust="spacing" textLength="38.6982" x="185.5159" y="21.9951">AMM</text></g><!--entity UC1--><g class="entity" data-qualified-name="AMM.UC1" data-source-line="7" id="ent0005"><ellipse cx="204.8608" cy="57.0036" fill="#F1F1F1" rx="44.2608" ry="14.5236" style="stroke:#181818;stroke-width:0.5;"/><text fill="#000000" font-family="sans-serif" font-size="14" lengthAdjust="spacing" textLength="58.3516" x="175.685" y="61.6521">initialize</text></g><!--entity UC2--><g class="entity" data-qualified-name="AMM.UC2" data-source-line="8" id="ent0006"><ellipse cx="204.8564" cy="255.0013" fill="#F1F1F1" rx="63.4564" ry="15.0913" style="stroke:#181818;stroke-width:0.5;"/><text fill="#000000" font-family="sans-serif" font-size="14" lengthAdjust="spacing" textLength="89.332" x="160.1904" y="259.6497">add_liquidity</text></g><!--entity UC3--><g class="entity" data-qualified-name="AMM.UC3" data-source-line="9" id="ent0007"><ellipse cx="204.864" cy="188.0028" fill="#F1F1F1" rx="74.064" ry="17.2128" style="stroke:#181818;stroke-width:0.5;"/><text fill="#000000" font-family="sans-serif" font-size="14" lengthAdjust="spacing" textLength="116.4502" x="146.6389" y="192.6512">remove_liquidity</text></g><!--entity UC4--><g class="entity" data-qualified-name="AMM.UC4" data-source-line="10" id="ent0008"><ellipse cx="204.8643" cy="320.0036" fill="#F1F1F1" rx="28.6043" ry="14.5236" style="stroke:#181818;stroke-width:0.5;"/><text fill="#000000" font-family="sans-serif" font-size="14" lengthAdjust="spacing" textLength="36.21" x="186.7593" y="324.6521">swap</text></g><!--entity UC5--><g class="entity" data-qualified-name="AMM.UC5" data-source-line="11" id="ent0009"><ellipse cx="204.8564" cy="121.0036" fill="#F1F1F1" rx="55.4364" ry="14.5236" style="stroke:#181818;stroke-width:0.5;"/><text fill="#000000" font-family="sans-serif" font-size="14" lengthAdjust="spacing" textLength="74.1563" x="167.7783" y="125.6521">set_locked</text></g><!--entity Authority--><g class="entity" data-qualified-name="Authority" data-source-line="3" id="ent0001"><ellipse cx="38.3989" cy="43.35" fill="#F1F1F1" rx="8" ry="8" style="stroke:#181818;stroke-width:0.5;"/><path d="M38.3989,51.35 L38.3989,78.35 M25.3989,59.35 L51.3989,59.35 M38.3989,78.35 L25.3989,93.35 M38.3989,78.35 L51.3989,93.35" fill="none" style="stroke:#181818;stroke-width:0.5;"/><text fill="#000000" font-family="sans-serif" font-size="14" lengthAdjust="spacing" textLength="64.7979" x="6" y="107.8451">Authority</text></g><!--entity LP--><g class="entity" data-qualified-name="LP" data-source-line="4" id="ent0002"><ellipse cx="38.4" cy="169.35" fill="#F1F1F1" rx="8" ry="8" style="stroke:#181818;stroke-width:0.5;"/><path d="M38.4,177.35 L38.4,204.35 M25.4,185.35 L51.4,185.35 M38.4,204.35 L25.4,219.35 M38.4,204.35 L51.4,219.35" fill="none" style="stroke:#181818;stroke-width:0.5;"/><text fill="#000000" font-family="sans-serif" font-size="14" lengthAdjust="spacing" textLength="16.2422" x="30.2789" y="233.8451">LP</text></g><!--entity Trader--><g class="entity" data-qualified-name="Trader" data-source-line="5" id="ent0003"><ellipse cx="38.4013" cy="290.35" fill="#F1F1F1" rx="8" ry="8" style="stroke:#181818;stroke-width:0.5;"/><path d="M38.4013,298.35 L38.4013,325.35 M25.4013,306.35 L51.4013,306.35 M38.4013,325.35 L25.4013,340.35 M38.4013,325.35 L51.4013,340.35" fill="none" style="stroke:#181818;stroke-width:0.5;"/><text fill="#000000" font-family="sans-serif" font-size="14" lengthAdjust="spacing" textLength="46.1426" x="15.33" y="354.8451">Trader</text></g><!--link Authority to UC1--><g class="link" data-entity-1="ent0001" data-entity-2="ent0005" data-link-type="dependency" data-source-line="13" id="lnk10"><path d="M71.11,69.92 C96.96,67.4 128.7236,64.3157 157.0036,61.5557" fill="none" id="Authority-to-UC1" style="stroke:#181818;stroke-width:1;"/><polygon fill="#181818" points="161.98,61.07,152.634,57.9631,157.0036,61.5557,153.4111,65.9253,161.98,61.07" style="stroke:#181818;stroke-width:1;stroke-linejoin:miter;stroke-miterlimit:10;"/></g><!--link LP to UC2--><g class="link" data-entity-1="ent0002" data-entity-2="ent0006" data-link-type="dependency" data-source-line="14" id="lnk11"><path d="M52.29,203.69 C65.83,208.6 87.76,216.47 106.8,223 C126.27,229.67 143.2679,235.3151 161.2379,241.1951" fill="none" id="LP-to-UC2" style="stroke:#181818;stroke-width:1;"/><polygon fill="#181818" points="165.99,242.75,158.6802,236.1495,161.2379,241.1951,156.1923,243.7528,165.99,242.75" style="stroke:#181818;stroke-width:1;stroke-linejoin:miter;stroke-miterlimit:10;"/></g><!--link LP to UC3--><g class="link" data-entity-1="ent0002" data-entity-2="ent0007" data-link-type="dependency" data-source-line="15" id="lnk12"><path d="M52.3,198.14 C69.87,196.96 97.6512,195.1044 128.2312,193.0544" fill="none" id="LP-to-UC3" style="stroke:#181818;stroke-width:1;"/><polygon fill="#181818" points="133.22,192.72,123.9726,189.3309,128.2312,193.0544,124.5077,197.313,133.22,192.72" style="stroke:#181818;stroke-width:1;stroke-linejoin:miter;stroke-miterlimit:10;"/></g><!--link Trader to UC4--><g class="link" data-entity-1="ent0003" data-entity-2="ent0008" data-link-type="dependency" data-source-line="16" id="lnk13"><path d="M61.92,320 C91.57,320 138.68,320 170.84,320" fill="none" id="Trader-to-UC4" style="stroke:#181818;stroke-width:1;"/><polygon fill="#181818" points="175.84,320,166.84,316,170.84,320,166.84,324,175.84,320" style="stroke:#181818;stroke-width:1;stroke-linejoin:miter;stroke-miterlimit:10;"/></g><!--link Authority to UC5--><g class="link" data-entity-1="ent0001" data-entity-2="ent0009" data-link-type="dependency" data-source-line="17" id="lnk14"><path d="M71.11,82.25 C98.36,90.21 132.9103,100.2891 161.6903,108.6891" fill="none" id="Authority-to-UC5" style="stroke:#181818;stroke-width:1;"/><polygon fill="#181818" points="166.49,110.09,158.9712,103.7286,161.6903,108.6891,156.7298,111.4082,166.49,110.09" style="stroke:#181818;stroke-width:1;stroke-linejoin:miter;stroke-miterlimit:10;"/></g><?plantuml-src PK-x3i8m3Dpp5LRt3Zow8Y7MLke0SsKrfhKQ4aXSAa3yEwy8YhhTooUVeRs0EF3Sj0AQFTN2pghGiJsYnmE45hKRs3QmHnD8OItEmxgNrdcMI-Hv6S7MeoQlNZre6qEmBWguAO0-K8s1867BmcZuIWbWWDrcDdPHwyhmgMVzB8-1-JZWwU3EDCainfamu37gop-Tf3AkxaX7DrDtzPq2QRfwlvEN4Sv_SA4-oo9TJiwo1m00?></g></svg>