<svg xmlns="http://www.w3.org/2000/svg" xmlns:xlink="http://www.w3.org/1999/xlink" contentStyleType="text/css" data-diagram-type="DESCRIPTION" height="133px" preserveAspectRatio="none" style="width:830px;height:133px;background:#FFFFFF;" version="1.1" viewBox="0 0 830 133" width="830px" zoomAndPan="magnify"><?plantuml $version$?><defs/><g><!--entity Maker--><g class="entity" data-qualified-name="Maker" data-source-line="3" id="ent0001"><ellipse cx="208.1774" cy="52.65" fill="#F1F1F1" rx="8" ry="8" style="stroke:#181818;stroke-width:0.5;"/><path d="M208.1774,60.65 L208.1774,87.65 M195.1774,68.65 L221.1774,68.65 M208.1774,87.65 L195.1774,102.65 M208.1774,87.65 L221.1774,102.65" fill="none" style="stroke:#181818;stroke-width:0.5;"/><text fill="#000000" font-family="sans-serif" font-size="14" lengthAdjust="spacing" textLength="43.1348" x="186.61" y="117.1451">Maker</text></g><!--entity Taker--><g class="entity" data-qualified-name="Taker" data-source-line="4" id="ent0002"><ellipse cx="25.8037" cy="52.65" fill="#F1F1F1" rx="8" ry="8" style="stroke:#181818;stroke-width:0.5;"/><path d="M25.8037,60.65 L25.8037,87.65 M12.8037,68.65 L38.8037,68.65 M25.8037,87.65 L12.8037,102.65 M25.8037,87.65 L38.8037,102.65" fill="none" style="stroke:#181818;stroke-width:0.5;"/><text fill="#000000" font-family="sans-serif" font-size="14" lengthAdjust="spacing" textLength="39.6074" x="6" y="117.1451">Taker</text></g><!--entity Escrow--><g class="entity" data-qualified-name="Escrow" data-source-line="5" id="ent0003"><rect fill="#F1F1F1" height="52.5938" rx="2.5" ry="2.5" style="stroke:#181818;stroke-width:0.5;" width="104.0889" x="407.74" y="7"/><text fill="#000000" font-family="sans-serif" font-size="14" lengthAdjust="spacing" textLength="49.376" x="417.74" y="29.9951">escrow</text><text fill="#000000" font-family="sans-serif" font-size="14" lengthAdjust="spacing" textLength="84.0889" x="417.74" y="46.292">(PDA, state)</text></g><!--entity Vault--><g class="entity" data-qualified-name="Vault" data-source-line="6" id="ent0004"><rect fill="#F1F1F1" height="52.5938" rx="2.5" ry="2.5" style="stroke:#181818;stroke-width:0.5;" width="96.3301" x="719.83" y="56"/><text fill="#000000" font-family="sans-serif" font-size="14" lengthAdjust="spacing" textLength="35.1162" x="729.83" y="78.9951">vault</text><text fill="#000000" font-family="sans-serif" font-size="14" lengthAdjust="spacing" textLength="76.3301" x="729.83" y="95.292">(PDA, ATA)</text></g><!--link Maker to Escrow--><g class="link" data-entity-1="ent0001" data-entity-2="ent0003" data-link-type="dependency" data-source-line="7" id="lnk5"><path d="M230.03,78.21 C268.69,70.62 347.6437,55.1237 402.3737,44.3737" fill="none" id="Maker-to-Escrow" style="stroke:#181818;stroke-width:1;"/><polygon fill="#181818" points="407.28,43.41,397.6778,41.2196,402.3737,44.3737,399.2197,49.0696,407.28,43.41" style="stroke:#181818;stroke-width:1;stroke-linejoin:miter;stroke-miterlimit:10;"/><text fill="#000000" font-family="sans-serif" font-size="13" lengthAdjust="spacing" textLength="116.1304" x="260.74" y="46.6169">opens, sets terms</text></g><!--link Escrow to Vault--><g class="link" data-entity-1="ent0003" data-entity-2="ent0004" data-link-type="dependency" data-source-line="8" id="lnk6"><path d="M512.04,41.5 C569.93,50.77 658.4228,64.93 714.6728,73.93" fill="none" id="Escrow-to-Vault" style="stroke:#181818;stroke-width:1;"/><polygon fill="#181818" points="719.61,74.72,711.355,69.3483,714.6728,73.93,710.0911,77.2478,719.61,74.72" style="stroke:#181818;stroke-width:1;stroke-linejoin:miter;stroke-miterlimit:10;"/><text fill="#000000" font-family="sans-serif" font-size="13" lengthAdjust="spacing" textLength="146.415" x="542.83" y="42.5069">holds the locked stake</text></g><!--link Maker to Vault--><g class="link" data-entity-1="ent0001" data-entity-2="ent0004" data-link-type="dependency" data-source-line="9" id="lnk7"><path d="M230.03,83.98 C266.18,86.79 342.84,92.34 407.74,94.3 C519.4,97.67 645.5613,90.7964 714.3613,86.1564" fill="none" id="Maker-to-Vault" style="stroke:#181818;stroke-width:1;stroke-dasharray:7,7;"/><polygon fill="#181818" points="719.35,85.82,710.1012,82.4347,714.3613,86.1564,710.6396,90.4165,719.35,85.82" style="stroke:#181818;stroke-width:1;stroke-linejoin:miter;stroke-miterlimit:10;"/><text fill="#000000" font-family="sans-serif" font-size="13" lengthAdjust="spacing" textLength="102.9209" x="408.79" y="90.3669">deposits mint_a</text></g><!--link Taker to Maker--><g class="link" data-entity-1="ent0002" data-entity-2="ent0001" data-link-type="dependency" data-source-line="10" id="lnk8"><path d="M46.11,82.3 C80.28,82.3 146.13,82.3 181.35,82.3" fill="none" id="Taker-to-Maker" style="stroke:#181818;stroke-width:1;stroke-dasharray:7,7;"/><polygon fill="#181818" points="186.35,82.3,177.35,78.3,181.35,82.3,177.35,86.3,186.35,82.3" style="stroke:#181818;stroke-width:1;stroke-linejoin:miter;stroke-miterlimit:10;"/><text fill="#000000" font-family="sans-serif" font-size="13" lengthAdjust="spacing" textLength="79.1807" x="76.61" y="78.3669">pays mint_b</text></g><?plantuml-src JOxB2i9034NtynN1bOBs0rm81LqABeehGM8dROTE9sKI5V_UFiR7BkISUnDFbO8oH5St2jP5AjLnCDAwq6F43gH1oqyNQgZG2naibICSiQMOvcAQnoI6sXCiICh8pqjOdlRv6aHHQRK053XCu5zzuDthnyoBVFREuzPCDs2psQKSR85x2Z9KaWeenKvCGgCrfGQfOMy7t11uBbkoumSjfRei-ucMUXOtL7Kkw1LDyJLcTmizlXAzlG40?></g></svg>